<mxfile host="app.diagrams.net" modified="2023-12-21T15:05:19.891Z" agent="Mozilla/5.0 (Windows NT 10.0; Win64; x64) AppleWebKit/537.36 (KHTML, like Gecko) Chrome/120.0.0.0 Safari/537.36" etag="FukbrQ99L4gvPJvX7H_q" version="22.1.11" type="device">
  <diagram id="R2lEEEUBdFMjLlhIrx00" name="Page-1">
    <mxGraphModel dx="1500" dy="827" grid="1" gridSize="10" guides="1" tooltips="1" connect="1" arrows="1" fold="1" page="1" pageScale="1" pageWidth="850" pageHeight="1100" math="0" shadow="0" extFonts="Permanent Marker^https://fonts.googleapis.com/css?family=Permanent+Marker">
      <root>
        <mxCell id="0" />
        <mxCell id="1" parent="0" />
        <mxCell id="mmO6Fxo1zzLMm21wmw4f-27" value="" style="edgeStyle=entityRelationEdgeStyle;fontSize=12;html=1;endArrow=ERmandOne;startArrow=ERmandOne;rounded=0;exitX=0.378;exitY=-0.016;exitDx=0;exitDy=0;exitPerimeter=0;entryX=0.625;entryY=0.94;entryDx=0;entryDy=0;entryPerimeter=0;" edge="1" parent="1" target="mmO6Fxo1zzLMm21wmw4f-15">
          <mxGeometry width="100" height="100" relative="1" as="geometry">
            <mxPoint x="630.5" y="599" as="sourcePoint" />
            <mxPoint x="689.5" y="400" as="targetPoint" />
            <Array as="points">
              <mxPoint x="659.5" y="650" />
              <mxPoint x="659.5" y="660" />
              <mxPoint x="639.4200000000001" y="469.99" />
              <mxPoint x="605.4200000000001" y="494.99" />
              <mxPoint x="679.5" y="450" />
              <mxPoint x="625.4200000000001" y="474.99" />
              <mxPoint x="645.4200000000001" y="504.99" />
              <mxPoint x="609.4200000000001" y="474.99" />
              <mxPoint x="635.4200000000001" y="477.99" />
              <mxPoint x="605.4200000000001" y="494.99" />
              <mxPoint x="625.4200000000001" y="504.99" />
              <mxPoint x="639.4200000000001" y="494.99" />
              <mxPoint x="705.4200000000001" y="477.99" />
            </Array>
          </mxGeometry>
        </mxCell>
        <mxCell id="mmO6Fxo1zzLMm21wmw4f-21" value="GEM" style="shape=rhombus;perimeter=rhombusPerimeter;whiteSpace=wrap;html=1;align=center;" vertex="1" parent="1">
          <mxGeometry x="570" y="480" width="180" height="60" as="geometry" />
        </mxCell>
        <mxCell id="mmO6Fxo1zzLMm21wmw4f-23" value="" style="edgeStyle=entityRelationEdgeStyle;fontSize=12;html=1;endArrow=ERmandOne;startArrow=ERmandOne;rounded=0;exitX=0.378;exitY=-0.016;exitDx=0;exitDy=0;exitPerimeter=0;" edge="1" parent="1" source="mmO6Fxo1zzLMm21wmw4f-13">
          <mxGeometry width="100" height="100" relative="1" as="geometry">
            <mxPoint x="630" y="370" as="sourcePoint" />
            <mxPoint x="690" y="120" as="targetPoint" />
            <Array as="points">
              <mxPoint x="660" y="370" />
              <mxPoint x="660" y="380" />
              <mxPoint x="639.9200000000001" y="189.99" />
              <mxPoint x="605.9200000000001" y="214.99" />
              <mxPoint x="680" y="170" />
              <mxPoint x="625.9200000000001" y="194.99" />
              <mxPoint x="645.9200000000001" y="224.99" />
              <mxPoint x="609.9200000000001" y="194.99" />
              <mxPoint x="635.9200000000001" y="197.99" />
              <mxPoint x="605.9200000000001" y="214.99" />
              <mxPoint x="625.9200000000001" y="224.99" />
              <mxPoint x="639.9200000000001" y="214.99" />
              <mxPoint x="705.9200000000001" y="197.99" />
            </Array>
          </mxGeometry>
        </mxCell>
        <mxCell id="mmO6Fxo1zzLMm21wmw4f-1" value="{DataName}_scRNA_category_table" style="swimlane;fontStyle=0;childLayout=stackLayout;horizontal=1;startSize=30;horizontalStack=0;resizeParent=1;resizeParentMax=0;resizeLast=0;collapsible=1;marginBottom=0;whiteSpace=wrap;html=1;" vertex="1" parent="1">
          <mxGeometry x="90" y="210" width="210" height="150" as="geometry" />
        </mxCell>
        <mxCell id="mmO6Fxo1zzLMm21wmw4f-3" value="sample" style="text;strokeColor=none;fillColor=none;align=left;verticalAlign=middle;spacingLeft=4;spacingRight=4;overflow=hidden;points=[[0,0.5],[1,0.5]];portConstraint=eastwest;rotatable=0;whiteSpace=wrap;html=1;" vertex="1" parent="mmO6Fxo1zzLMm21wmw4f-1">
          <mxGeometry y="30" width="210" height="30" as="geometry" />
        </mxCell>
        <mxCell id="mmO6Fxo1zzLMm21wmw4f-2" value="sample_type" style="text;strokeColor=none;fillColor=none;align=left;verticalAlign=middle;spacingLeft=4;spacingRight=4;overflow=hidden;points=[[0,0.5],[1,0.5]];portConstraint=eastwest;rotatable=0;whiteSpace=wrap;html=1;" vertex="1" parent="mmO6Fxo1zzLMm21wmw4f-1">
          <mxGeometry y="60" width="210" height="30" as="geometry" />
        </mxCell>
        <mxCell id="mmO6Fxo1zzLMm21wmw4f-4" value="geo_id" style="text;strokeColor=none;fillColor=none;align=left;verticalAlign=middle;spacingLeft=4;spacingRight=4;overflow=hidden;points=[[0,0.5],[1,0.5]];portConstraint=eastwest;rotatable=0;whiteSpace=wrap;html=1;" vertex="1" parent="mmO6Fxo1zzLMm21wmw4f-1">
          <mxGeometry y="90" width="210" height="30" as="geometry" />
        </mxCell>
        <mxCell id="mmO6Fxo1zzLMm21wmw4f-5" value="sample_id" style="text;strokeColor=none;fillColor=none;align=left;verticalAlign=middle;spacingLeft=4;spacingRight=4;overflow=hidden;points=[[0,0.5],[1,0.5]];portConstraint=eastwest;rotatable=0;whiteSpace=wrap;html=1;" vertex="1" parent="mmO6Fxo1zzLMm21wmw4f-1">
          <mxGeometry y="120" width="210" height="30" as="geometry" />
        </mxCell>
        <mxCell id="mmO6Fxo1zzLMm21wmw4f-6" value="{DataName}_fpkm_scRNA_rmZero_log2" style="swimlane;fontStyle=0;childLayout=stackLayout;horizontal=1;startSize=30;horizontalStack=0;resizeParent=1;resizeParentMax=0;resizeLast=0;collapsible=1;marginBottom=0;whiteSpace=wrap;html=1;" vertex="1" parent="1">
          <mxGeometry x="550" y="30" width="240" height="90" as="geometry" />
        </mxCell>
        <mxCell id="mmO6Fxo1zzLMm21wmw4f-7" value="gene_id" style="text;strokeColor=none;fillColor=none;align=left;verticalAlign=middle;spacingLeft=4;spacingRight=4;overflow=hidden;points=[[0,0.5],[1,0.5]];portConstraint=eastwest;rotatable=0;whiteSpace=wrap;html=1;" vertex="1" parent="mmO6Fxo1zzLMm21wmw4f-6">
          <mxGeometry y="30" width="240" height="30" as="geometry" />
        </mxCell>
        <mxCell id="mmO6Fxo1zzLMm21wmw4f-8" value="{sample}" style="text;strokeColor=none;fillColor=none;align=left;verticalAlign=middle;spacingLeft=4;spacingRight=4;overflow=hidden;points=[[0,0.5],[1,0.5]];portConstraint=eastwest;rotatable=0;whiteSpace=wrap;html=1;" vertex="1" parent="mmO6Fxo1zzLMm21wmw4f-6">
          <mxGeometry y="60" width="240" height="30" as="geometry" />
        </mxCell>
        <mxCell id="mmO6Fxo1zzLMm21wmw4f-13" value="{DataName}_count_scRNA_rmZero_log2" style="swimlane;fontStyle=0;childLayout=stackLayout;horizontal=1;startSize=30;horizontalStack=0;resizeParent=1;resizeParentMax=0;resizeLast=0;collapsible=1;marginBottom=0;whiteSpace=wrap;html=1;" vertex="1" parent="1">
          <mxGeometry x="540" y="320" width="240" height="90" as="geometry" />
        </mxCell>
        <mxCell id="mmO6Fxo1zzLMm21wmw4f-14" value="gene_id" style="text;strokeColor=none;fillColor=none;align=left;verticalAlign=middle;spacingLeft=4;spacingRight=4;overflow=hidden;points=[[0,0.5],[1,0.5]];portConstraint=eastwest;rotatable=0;whiteSpace=wrap;html=1;" vertex="1" parent="mmO6Fxo1zzLMm21wmw4f-13">
          <mxGeometry y="30" width="240" height="30" as="geometry" />
        </mxCell>
        <mxCell id="mmO6Fxo1zzLMm21wmw4f-15" value="{sample}" style="text;strokeColor=none;fillColor=none;align=left;verticalAlign=middle;spacingLeft=4;spacingRight=4;overflow=hidden;points=[[0,0.5],[1,0.5]];portConstraint=eastwest;rotatable=0;whiteSpace=wrap;html=1;" vertex="1" parent="mmO6Fxo1zzLMm21wmw4f-13">
          <mxGeometry y="60" width="240" height="30" as="geometry" />
        </mxCell>
        <mxCell id="mmO6Fxo1zzLMm21wmw4f-16" value="{DataName}_tpm_scRNA_rmZero_log2" style="swimlane;fontStyle=0;childLayout=stackLayout;horizontal=1;startSize=30;horizontalStack=0;resizeParent=1;resizeParentMax=0;resizeLast=0;collapsible=1;marginBottom=0;whiteSpace=wrap;html=1;" vertex="1" parent="1">
          <mxGeometry x="530" y="600" width="240" height="90" as="geometry" />
        </mxCell>
        <mxCell id="mmO6Fxo1zzLMm21wmw4f-17" value="gene_id" style="text;strokeColor=none;fillColor=none;align=left;verticalAlign=middle;spacingLeft=4;spacingRight=4;overflow=hidden;points=[[0,0.5],[1,0.5]];portConstraint=eastwest;rotatable=0;whiteSpace=wrap;html=1;" vertex="1" parent="mmO6Fxo1zzLMm21wmw4f-16">
          <mxGeometry y="30" width="240" height="30" as="geometry" />
        </mxCell>
        <mxCell id="mmO6Fxo1zzLMm21wmw4f-18" value="{sample}" style="text;strokeColor=none;fillColor=none;align=left;verticalAlign=middle;spacingLeft=4;spacingRight=4;overflow=hidden;points=[[0,0.5],[1,0.5]];portConstraint=eastwest;rotatable=0;whiteSpace=wrap;html=1;" vertex="1" parent="mmO6Fxo1zzLMm21wmw4f-16">
          <mxGeometry y="60" width="240" height="30" as="geometry" />
        </mxCell>
        <mxCell id="mmO6Fxo1zzLMm21wmw4f-20" value="GEM" style="shape=rhombus;perimeter=rhombusPerimeter;whiteSpace=wrap;html=1;align=center;" vertex="1" parent="1">
          <mxGeometry x="570" y="190" width="180" height="60" as="geometry" />
        </mxCell>
        <mxCell id="mmO6Fxo1zzLMm21wmw4f-28" value="" style="edgeStyle=entityRelationEdgeStyle;fontSize=12;html=1;endArrow=ERoneToMany;rounded=0;entryX=0;entryY=0.5;entryDx=0;entryDy=0;" edge="1" parent="1" target="mmO6Fxo1zzLMm21wmw4f-8">
          <mxGeometry width="100" height="100" relative="1" as="geometry">
            <mxPoint x="300" y="290" as="sourcePoint" />
            <mxPoint x="400" y="190" as="targetPoint" />
            <Array as="points">
              <mxPoint x="540" y="100" />
            </Array>
          </mxGeometry>
        </mxCell>
        <mxCell id="mmO6Fxo1zzLMm21wmw4f-12" value="use" style="shape=rhombus;perimeter=rhombusPerimeter;whiteSpace=wrap;html=1;align=center;" vertex="1" parent="1">
          <mxGeometry x="365" y="150" width="120" height="60" as="geometry" />
        </mxCell>
        <mxCell id="mmO6Fxo1zzLMm21wmw4f-31" value="" style="edgeStyle=entityRelationEdgeStyle;fontSize=12;html=1;endArrow=ERoneToMany;rounded=0;entryX=0;entryY=0.5;entryDx=0;entryDy=0;" edge="1" parent="1" target="mmO6Fxo1zzLMm21wmw4f-15">
          <mxGeometry width="100" height="100" relative="1" as="geometry">
            <mxPoint x="300" y="290" as="sourcePoint" />
            <mxPoint x="540" y="365" as="targetPoint" />
            <Array as="points">
              <mxPoint x="530" y="350" />
              <mxPoint x="530" y="370" />
              <mxPoint x="520" y="370" />
            </Array>
          </mxGeometry>
        </mxCell>
        <mxCell id="mmO6Fxo1zzLMm21wmw4f-29" value="use" style="shape=rhombus;perimeter=rhombusPerimeter;whiteSpace=wrap;html=1;align=center;" vertex="1" parent="1">
          <mxGeometry x="365" y="320" width="120" height="60" as="geometry" />
        </mxCell>
        <mxCell id="mmO6Fxo1zzLMm21wmw4f-32" value="" style="edgeStyle=entityRelationEdgeStyle;fontSize=12;html=1;endArrow=ERoneToMany;rounded=0;entryX=0;entryY=0.5;entryDx=0;entryDy=0;" edge="1" parent="1" target="mmO6Fxo1zzLMm21wmw4f-18">
          <mxGeometry width="100" height="100" relative="1" as="geometry">
            <mxPoint x="300" y="290" as="sourcePoint" />
            <mxPoint x="528.3199999999999" y="646.21" as="targetPoint" />
            <Array as="points">
              <mxPoint x="510" y="655" />
            </Array>
          </mxGeometry>
        </mxCell>
        <mxCell id="mmO6Fxo1zzLMm21wmw4f-30" value="use" style="shape=rhombus;perimeter=rhombusPerimeter;whiteSpace=wrap;html=1;align=center;" vertex="1" parent="1">
          <mxGeometry x="365" y="480" width="120" height="60" as="geometry" />
        </mxCell>
      </root>
    </mxGraphModel>
  </diagram>
</mxfile>
